<?xml version="1.0" standalone="no"?>
<!DOCTYPE svg PUBLIC "-//W3C//DTD SVG 20010904//EN"
 "http://www.w3.org/TR/2001/REC-SVG-20010904/DTD/svg10.dtd">
<svg version="1.0" xmlns="http://www.w3.org/2000/svg"
 width="1000.000000pt" height="1000.000000pt" viewBox="0 0 1000.000000 1000.000000"
 preserveAspectRatio="xMidYMid meet">
<metadata>
Created by potrace 1.11, written by Peter Selinger 2001-2013
</metadata>
<g transform="translate(0.000000,1000.000000) scale(0.100000,-0.100000)"
fill="#000000" stroke="none">
<path d="M5035 9687 c-22 -7 -130 -58 -240 -113 -233 -119 -589 -285 -760
-356 -66 -28 -163 -68 -215 -90 -443 -184 -980 -340 -1465 -423 -240 -41 -603
-102 -775 -130 -249 -40 -285 -51 -335 -99 -52 -51 -65 -100 -65 -256 0 -125
12 -110 -108 -130 -88 -15 -109 -25 -125 -57 -8 -15 -26 -116 -41 -223 -14
-107 -31 -226 -36 -265 -6 -38 -20 -135 -31 -215 -11 -80 -31 -224 -45 -320
-14 -96 -30 -211 -35 -254 -5 -44 -16 -122 -25 -175 -9 -53 -18 -114 -20 -136
-3 -22 -9 -75 -15 -118 -14 -110 -5 -133 84 -205 129 -104 306 -227 464 -323
37 -23 69 -42 70 -43 1 0 24 -116 52 -256 87 -432 202 -875 318 -1223 l56
-169 -20 -36 c-12 -21 -33 -90 -48 -155 l-27 -117 31 -134 c18 -74 39 -142 46
-153 12 -15 14 -163 15 -921 0 -860 -1 -905 -19 -940 -10 -20 -30 -91 -45
-156 l-27 -120 28 -125 c26 -117 31 -131 83 -203 40 -56 76 -92 128 -128 63
-45 86 -55 194 -81 l123 -30 355 4 355 3 156 41 c86 22 179 53 207 68 l50 27
56 -42 c44 -34 75 -47 158 -68 95 -24 125 -26 388 -31 l286 -6 44 -37 c25 -20
117 -80 205 -133 88 -54 185 -115 215 -135 83 -56 273 -149 342 -166 41 -11
79 -14 111 -9 55 7 256 94 355 153 140 83 323 198 427 267 108 72 113 74 245
104 86 20 160 43 203 66 l69 34 53 -40 c43 -32 75 -46 157 -67 96 -24 122 -26
373 -29 215 -3 282 -1 327 11 50 13 64 13 120 0 49 -12 120 -14 328 -11 245 3
273 5 367 29 131 33 222 95 299 203 47 65 54 84 82 201 l31 130 -33 132 c-18
73 -38 138 -45 145 -8 8 -11 246 -11 912 0 763 2 904 14 921 8 11 28 77 44
146 l30 126 -30 124 c-18 76 -39 137 -54 160 l-26 36 56 159 c127 366 298
1042 356 1413 7 41 16 82 21 91 5 10 41 35 81 57 145 79 356 227 480 335 83
72 83 70 48 337 -10 79 -45 330 -65 460 -7 52 -21 154 -30 225 -17 139 -30
234 -45 330 -5 33 -16 116 -25 185 -47 369 -50 381 -103 401 -15 6 -64 17
-109 24 -45 7 -86 16 -91 19 -5 3 -7 53 -4 112 8 180 -28 270 -119 294 -78 21
-338 70 -584 110 -844 136 -1140 209 -1758 434 -247 90 -818 345 -1167 521
-234 119 -270 129 -365 102z m323 -350 c673 -334 1209 -551 1707 -691 367
-103 660 -163 1240 -256 138 -22 302 -50 365 -63 l115 -23 -4 -125 c-2 -68 -4
-125 -5 -125 0 -1 -91 11 -201 27 -1551 220 -3218 291 -4820 203 -698 -38
-1520 -118 -2143 -209 -96 -14 -176 -25 -178 -25 -2 0 -4 59 -4 130 0 72 1
130 3 130 11 0 477 76 730 119 335 57 429 76 672 132 615 144 1261 391 2000
764 132 67 252 123 268 123 17 1 111 -39 255 -111z m-308 -1262 c0 -7 142
-540 145 -543 1 -2 33 121 71 273 l69 275 107 0 c60 0 108 -3 108 -7 0 -3 -53
-167 -117 -362 l-118 -356 -5 -200 -5 -200 -105 0 -105 0 -6 195 -5 195 -127
364 c-70 200 -127 366 -127 368 0 1 50 3 110 3 61 0 110 -2 110 -5z m1217 -19
c5 -5 17 -56 108 -496 36 -173 81 -387 100 -475 19 -88 32 -161 30 -163 -2 -3
-51 -1 -109 3 l-104 7 -16 86 c-9 48 -16 95 -16 104 0 39 -27 48 -139 48
l-108 0 -20 -112 -19 -113 -103 2 c-57 1 -105 4 -107 6 -2 2 39 215 92 473 52
258 102 505 110 549 9 44 18 84 21 89 6 9 271 2 280 -8z m-2262 -35 c17 -9 38
-32 48 -51 16 -32 17 -72 15 -492 -3 -442 -4 -457 -24 -485 -40 -55 -95 -72
-265 -83 -169 -10 -218 -4 -256 32 -52 48 -53 55 -53 515 0 394 2 431 19 468
37 81 89 104 260 115 149 9 215 4 256 -19z m3050 -6 c211 -17 242 -23 290 -59
59 -46 67 -83 63 -333 -3 -250 -6 -259 -84 -298 l-40 -20 84 -205 c47 -113 87
-215 89 -227 5 -22 3 -22 -68 -16 -41 3 -92 8 -114 12 l-39 6 -84 222 c-81
213 -85 221 -113 225 l-29 5 0 -220 0 -220 -102 8 c-57 4 -106 9 -110 12 -5 2
-8 256 -8 564 l0 559 38 0 c20 0 123 -7 227 -15z m-3996 -63 c14 -10 34 -31
45 -46 20 -27 21 -42 24 -444 4 -470 1 -503 -54 -557 -44 -44 -76 -53 -265
-72 -153 -15 -157 -15 -202 5 -84 37 -82 24 -82 522 0 239 3 447 8 462 11 42
63 95 111 113 52 20 261 45 335 40 33 -2 65 -11 80 -23z m4941 -27 c118 -13
232 -30 253 -35 52 -15 114 -73 127 -118 6 -23 10 -207 10 -467 0 -481 0 -479
-71 -517 -42 -23 -72 -23 -272 1 -89 11 -190 23 -224 26 l-63 7 0 564 c0 450
3 564 13 564 7 0 109 -11 227 -25z m-5825 -600 l0 -560 -65 -11 c-36 -7 -84
-12 -107 -13 l-43 -1 0 478 0 479 -61 -9 c-33 -4 -65 -5 -70 -2 -14 9 -11 154
4 159 22 8 291 43 317 42 l25 -2 0 -560z m3520 -650 c371 -8 1073 -46 1265
-70 19 -2 71 -7 115 -10 70 -6 461 -48 690 -75 198 -23 836 -118 914 -136 l24
-5 -7 -117 c-13 -215 -38 -437 -72 -633 -37 -216 -152 -709 -223 -955 -34
-118 -158 -494 -165 -502 -2 -1 -60 11 -129 28 -120 28 -137 30 -339 30 -160
0 -231 -4 -290 -17 -72 -15 -82 -15 -153 0 -57 13 -127 17 -288 17 -194 0
-222 -2 -327 -26 -98 -23 -124 -34 -176 -70 -34 -24 -67 -51 -74 -59 -10 -12
-20 -9 -68 24 -84 56 -90 59 -244 97 -172 43 -274 54 -374 43 -106 -12 -330
-67 -388 -95 -64 -32 -208 -136 -240 -174 -30 -36 -32 -37 -40 -6 -10 41 -90
139 -151 185 -51 39 -75 49 -175 72 -114 28 -118 28 -455 29 -334 0 -342 0
-455 -27 -98 -22 -124 -33 -179 -71 -67 -48 -146 -145 -156 -193 -4 -16 -9
-29 -12 -29 -3 0 -23 20 -45 45 -47 53 -215 176 -281 205 -25 11 -112 36 -194
55 l-148 35 -320 0 c-318 0 -321 0 -430 -28 -60 -16 -116 -30 -124 -33 -35
-10 -243 691 -336 1131 -74 354 -86 433 -110 710 -14 157 -25 294 -25 306 0
19 14 23 198 52 402 64 778 114 1232 162 208 23 691 61 930 75 63 4 133 8 155
10 56 5 688 26 870 29 154 2 332 0 800 -9z m3307 -345 c70 -13 133 -27 140
-31 9 -6 4 -14 -17 -31 -31 -25 -248 -173 -279 -190 -17 -9 -18 -5 -11 119 7
143 12 166 28 160 7 -2 69 -15 139 -27z m-7624 -117 c7 -75 10 -138 8 -141 -5
-5 -96 56 -221 146 -49 36 -92 67 -94 69 -12 8 19 18 126 38 65 13 130 23 144
24 l26 1 11 -137z m1569 -2426 c122 -41 244 -158 295 -284 l23 -58 3 -830 c2
-544 -1 -847 -8 -878 -16 -77 -57 -153 -117 -218 -63 -67 -112 -99 -198 -129
-54 -18 -84 -20 -397 -20 -186 0 -338 2 -338 4 0 3 18 42 40 87 l40 83 0 1045
0 1046 -40 78 c-22 42 -40 82 -40 88 0 7 109 9 343 7 292 -3 350 -6 394 -21z
m1712 -54 c-52 -75 -60 -110 -48 -200 24 -185 60 -473 83 -668 131 -1076 163
-1320 178 -1360 6 -16 27 -54 45 -82 l33 -53 -246 0 -245 0 32 46 c54 79 61
120 44 243 -9 58 -18 118 -21 134 l-6 27 -188 0 -189 0 -6 -32 c-39 -229 -33
-291 37 -390 l19 -28 -247 0 -247 0 20 23 c38 40 71 116 78 175 4 31 15 127
26 212 21 166 63 505 129 1030 22 179 54 431 71 560 34 262 34 261 -27 358
l-34 52 371 0 370 0 -32 -47z m1404 20 c122 -45 209 -138 247 -261 11 -36 25
-119 31 -186 11 -127 24 -168 69 -216 15 -16 25 -32 22 -35 -7 -7 -482 -7
-482 0 0 3 16 28 35 56 51 74 60 113 46 195 -21 120 -70 169 -171 169 -115 0
-173 -74 -173 -219 1 -164 77 -306 332 -621 142 -176 248 -363 293 -520 29
-104 32 -323 4 -424 -63 -232 -211 -335 -476 -335 -345 1 -488 155 -490 527 0
108 -11 144 -59 199 -17 20 -31 38 -31 42 0 3 110 6 245 6 135 0 245 -3 245
-6 0 -4 -14 -22 -31 -42 -17 -20 -38 -50 -45 -68 -16 -39 -18 -163 -4 -216 32
-115 160 -165 264 -104 62 36 86 89 86 187 0 165 -60 281 -303 584 -187 233
-259 351 -319 528 -31 88 -32 99 -32 247 0 119 4 170 18 220 45 165 140 261
299 305 81 23 305 15 380 -12z m1184 -33 c-18 -22 -39 -57 -45 -79 -8 -26 -12
-175 -12 -485 l0 -446 210 0 211 0 -3 464 -3 464 -42 61 -42 61 245 0 246 0
-36 -42 c-20 -23 -41 -58 -46 -77 -6 -23 -10 -417 -10 -1067 0 -1131 -2 -1088
60 -1165 l31 -39 -246 0 -246 0 24 33 c14 17 34 51 46 74 20 41 21 54 21 483
l0 440 -210 0 -210 0 0 -427 c0 -262 4 -442 10 -465 6 -20 26 -60 45 -87 l34
-51 -244 0 -244 0 42 61 42 61 3 1060 2 1061 -21 44 c-12 25 -33 58 -46 74
l-25 29 247 0 247 0 -35 -40z m-1907 -2714 c58 -30 293 -96 343 -96 34 0 15
-18 -85 -80 -57 -35 -134 -84 -172 -108 -70 -45 -274 -146 -318 -157 -29 -8
-207 79 -333 161 -49 33 -132 84 -182 114 -51 30 -93 57 -93 60 0 3 96 4 214
2 209 -3 217 -2 330 27 97 24 125 36 169 69 29 23 54 41 57 41 3 1 35 -14 70
-33z"/>
<path d="M6111 7747 c-6 -45 -25 -154 -40 -242 -16 -88 -28 -161 -27 -162 1
-2 42 -6 90 -9 l87 -7 -5 24 c-3 13 -24 125 -46 248 -22 123 -41 225 -43 227
-2 2 -9 -34 -16 -79z"/>
<path d="M3750 7871 l-55 -6 -3 -389 c-2 -285 1 -392 9 -397 16 -9 131 1 147
14 9 7 12 97 12 386 0 388 -2 403 -39 399 -9 -1 -41 -4 -71 -7z"/>
<path d="M7010 7672 c0 -155 2 -181 16 -186 9 -3 49 -6 90 -6 l74 0 0 174 c0
96 -3 177 -7 179 -5 3 -45 8 -90 12 l-83 7 0 -180z"/>
<path d="M2775 7791 l-30 -6 0 -390 0 -390 65 0 c110 0 100 -41 100 405 l0
390 -52 -1 c-29 -1 -66 -4 -83 -8z"/>
<path d="M7980 7367 c0 -334 2 -406 14 -410 7 -3 50 -9 95 -12 l81 -8 0 401
c0 330 -2 401 -14 405 -7 3 -35 8 -62 12 -27 3 -64 8 -81 11 l-33 5 0 -404z"/>
<path d="M6000 6450 c-357 -35 -723 -175 -965 -370 l-40 -32 -200 5 c-221 5
-226 6 -582 121 -210 68 -258 78 -363 78 -105 0 -215 -24 -297 -65 -73 -37
-171 -113 -193 -150 -48 -78 -1 -167 88 -167 16 0 54 11 84 24 58 26 158 58
158 51 0 -8 -222 -116 -288 -141 -99 -38 -207 -34 -323 11 -50 19 -98 35 -106
35 -29 0 -80 -31 -92 -56 -32 -71 -1 -135 103 -206 l69 -47 -48 -21 c-217 -93
-488 -109 -662 -40 -112 45 -168 37 -198 -27 -31 -64 -1 -122 94 -183 23 -16
23 -16 -40 -33 -128 -35 -240 -80 -268 -108 -46 -46 -48 -109 -5 -153 34 -34
64 -36 168 -15 256 53 578 39 775 -33 31 -11 144 -62 251 -113 395 -188 580
-217 787 -125 l44 19 55 -35 c30 -19 90 -53 134 -75 77 -38 80 -41 80 -75 0
-42 23 -89 49 -104 39 -20 169 -41 261 -41 175 0 395 60 580 159 47 25 116 61
153 80 l68 36 47 -18 c205 -81 371 -125 561 -152 168 -23 434 -15 593 20 283
61 526 174 763 355 88 67 268 245 331 327 95 124 123 245 89 383 -23 93 -85
182 -229 327 -411 412 -935 607 -1486 554z m-1864 -777 c52 -25 84 -92 84
-176 0 -88 -22 -117 -88 -117 -52 0 -67 9 -211 118 -46 35 -99 71 -117 80 -41
19 -42 27 -6 41 203 78 266 88 338 54z m-619 -416 c15 -15 11 -15 -43 -1 -82
21 -87 25 -26 20 31 -2 60 -10 69 -19z m982 -233 c56 -71 64 -169 16 -200 -22
-15 -30 -13 -123 24 -54 22 -116 49 -137 59 l-37 20 49 36 c126 92 193 110
232 61z"/>
<path d="M2605 2584 l0 -906 120 4 c137 3 174 18 206 78 18 33 19 73 19 830 0
776 -1 796 -20 828 -37 60 -70 72 -205 72 l-120 0 0 -906z"/>
<path d="M4317 3350 c-3 -8 -24 -181 -47 -385 -22 -203 -46 -406 -51 -450 -5
-44 -18 -149 -28 -232 l-17 -153 148 0 148 0 -5 28 c-3 15 -12 90 -21 167 -18
165 -30 265 -49 435 -9 69 -26 226 -40 350 -29 260 -30 261 -38 240z"/>
</g>
</svg>
